
<svg xmlns="http://www.w3.org/2000/svg" 
  xmlns:xlink="http://www.w3.org/1999/xlink" viewBox="0 0 1500 1200">
  <defs>
    <style>.cls-1,.cls-10,.cls-11,.cls-2,.cls-3,.cls-4,.cls-5,.cls-6,.cls-7,.cls-8,.cls-9{fill:none;}.cls-1{stroke:#ddf1fc;stroke-width:20px;}.cls-1,.cls-10,.cls-11,.cls-12,.cls-2,.cls-3,.cls-4,.cls-5,.cls-6,.cls-7,.cls-8,.cls-9{stroke-miterlimit:10;}.cls-2{stroke:#009dd7;}.cls-10,.cls-11,.cls-2,.cls-3,.cls-4,.cls-5,.cls-6,.cls-7,.cls-8,.cls-9{stroke-linecap:round;stroke-width:5px;}.cls-3{stroke:#ee1822;}.cls-4{stroke:#f26f1f;}.cls-5{stroke:#22b573;}.cls-6{stroke:#4e2c8d;}.cls-7{stroke:#7c1f31;}.cls-8{stroke:#78d6cd;}.cls-9{stroke:#007a61;}.cls-10{stroke:#bbadd2;}.cls-11{stroke:#e77dad;}.cls-12{fill:#fff;stroke:#000;}.cls-13,.cls-19{font-size:10px;}.cls-13,.cls-14,.cls-18,.cls-19{font-family:FZLTHK--GBK1-0, FZLanTingHei-R-GBK;}.cls-14,.cls-21{font-size:11px;}.cls-15{fill:#226bac;}.cls-16{fill:#083354;}.cls-17{fill:#7fabda;opacity:0.9;}.cls-18{font-size:40px;letter-spacing:0.1em;}.cls-19{opacity:0.5;letter-spacing:0.03em;}.cls-20{fill:#009dd7;}.cls-21{font-family:FZLTZHK--GBK1-0, FZLanTingHei-DB-GBK;letter-spacing:0.05em;}.cls-22{fill:#ee1822;}.cls-23{fill:#f26f1f;}.cls-24{fill:#22b573;}.cls-25{fill:#4e2c8d;}.cls-26{fill:#7c1f31;}.cls-27{fill:#78d6cd;}.cls-28{fill:#007a61;}.cls-29{fill:#bbadd2;}.cls-30{fill:#e77dad;}</style>
  </defs>
  <title>ningbo-subway</title>
  <g id="river">
    <polyline class="cls-1" points="110.63 1239.63 608.5 741.75 608.5 567.25 870.25 305.5 1109 305.5 1442.25 -27.75"/>
    <polyline class="cls-1" points="0 422.5 450.5 422.5 611.5 583.5"/>
    <polyline class="cls-1" points="452.5 428.5 543.5 337.5 618.5 412.5"/>
</g>
  <g id="line">
    <polyline id="line-1" class="cls-2" points="110.5 616.5 1009 616.5 1316.5 616.5 1316.5 325 1474.5 325"/>
    <polyline id="line-2" class="cls-3" points="1253.25 259.25 1177.5 183.5 925 183.5 748 360.5 665.5 360.5 665.5 457 534.5 588 534.5 680 480 734.5 358.5 734.5 358.5 906 182.5 906"/>
    <polyline id="line-3" class="cls-4" points="483.75 27.75 622 166 622 286 796.5 461 796.5 801 711 886.5 711 1039"/>
    <polyline id="line-4" class="cls-5" points="1151.5 955 862.5 955 862.5 720 495.5 720 458.5 683 458.5 289 168 289 51.75 172.75"/>
    <polyline id="line-5" class="cls-6" points="555.5 286 514.5 286 461.5 339 305.5 339 305.5 859 425.5 859 476 909.5 950 909.5 950 415.5 820.5 286 555.5 286"/>
    <polyline id="line-6" class="cls-7" points="128.5 895 128.5 655 334 655 527 461.5 666 461.5 708.5 504 862.5 504 949.5 417 1095.5 417 1252.92 259.58 1458.5 259.58 1458.5 325"/>
    <polyline id="line-7" class="cls-8" points="1065.5 1060.5 1065.5 619 996.5 550 661 550 521.5 410.75 465.13 354.38 465.13 210 292.81 37.69"/>
    <polyline id="line-8" class="cls-9" points="215.5 205 215.5 494 415.5 494 415.5 733 528.5 846 1233.5 846"/>
    <polyline id="line-k1" class="cls-10" points="627 1059 627 1002.5 574.5 950 574.5 835 647 762.5 647 598 845.75 399.25 734.5 288 734.5 172.75 621.63 59.88 516.5 59.88"/>
    <polyline id="line-k2" class="cls-11" points="64.5 185.5 166 185.5 166 523.5 239 596.5 239 696 352.5 696 379.5 669 1005.5 669 1005.5 900 1059 953.5 1059 1060"/>
    <polyline id="line-s3" class="cls-4" points="707.5 1038 558.5 1038 435.25 1161.25"/>
</g>
  <g id="station-ex">
    <rect id="鼓楼" class="cls-12" x="526.5" y="612.2" width="16" height="9" rx="4.5" ry="4.5"/>
    <rect id="城隍庙" class="cls-12" x="526.5" y="664.5" width="16" height="9" rx="4.5" ry="4.5"/>
    <rect id="樱花公园" class="cls-12" x="788.5" y="612.2" width="16" height="9" rx="4.5" ry="4.5"/>
    <rect id="儿童公园" class="cls-12" x="788.5" y="715" width="16" height="9" rx="4.5" ry="4.5"/>
    <rect id="锦寓路" class="cls-12" x="742.5" y="841.35" width="16" height="9" rx="4.5" ry="4.5"/>
    <rect id="广德湖北路" class="cls-12" x="567" y="841.35" width="16" height="9" rx="4.5" ry="4.5"/>
    <rect id="庙堰" class="cls-12" x="567.5" y="905.5" width="16" height="9" rx="4.5" ry="4.5"/>
    <rect id="兴宁桥东" class="cls-12" x="639" y="715" width="16" height="9" rx="4.5" ry="4.5"/>
    <rect id="江厦桥东" class="cls-12" x="639" y="612.2" width="16" height="9" rx="4.5" ry="4.5"/>
    <rect id="七塔寺" class="cls-12" x="639" y="665" width="16" height="9" rx="4.5" ry="4.5"/>
    <rect id="惊驾路" class="cls-12" x="686" y="545.5" width="16" height="9" rx="4.5" ry="4.5"/>
    <rect id="嵩江东路" class="cls-12" x="854.37" y="841.35" width="16" height="9" rx="4.5" ry="4.5"/>
    <rect id="鄞州区政府" class="cls-12" x="703.5" y="904.5" width="16" height="9" rx="4.5" ry="4.5"/>
    <rect id="姜山" class="cls-12" x="703.5" y="1033.5" width="16" height="9" rx="4.5" ry="4.5"/>
    <rect id="和益" class="cls-12" x="618.5" y="1033.5" width="16" height="9" rx="4.5" ry="4.5"/>
    <rect id="大洋江" class="cls-12" x="942.33" y="841.35" width="16" height="9" rx="4.5" ry="4.5"/>
    <rect id="启明路" class="cls-12" x="998" y="841.35" width="16" height="9" rx="4.5" ry="4.5"/>
    <rect id="南高教园区" class="cls-12" x="854.5" y="905.5" width="16" height="9" rx="4.5" ry="4.5"/>
    <rect id="小洋江" class="cls-12" x="1051.5" y="950.5" width="22" height="9" rx="4.5" ry="4.5"/>
    <rect id="横溪" class="cls-12" x="1051.5" y="1036.5" width="22" height="9" rx="4.5" ry="4.5"/>
    <rect id="盛莫南路" class="cls-12" x="1057.25" y="841" width="16" height="9" rx="4.5" ry="4.5"/>
    <rect id="石碶" class="cls-12" x="351" y="855" width="16" height="9" rx="4.5" ry="4.5"/>
    <rect id="丽园南路" class="cls-12" x="407.5" y="730" width="16" height="9" rx="4.5" ry="4.5"/>
    <rect id="丽园北路" class="cls-12" x="407.62" y="665" width="16" height="9" rx="4.5" ry="4.5"/>
    <rect id="望童路" class="cls-12" x="297.5" y="651" width="16" height="9" rx="4.5" ry="4.5"/>
    <rect id="联丰路" class="cls-12" x="297.5" y="691" width="16" height="9" rx="4.5" ry="4.5"/>
    <rect id="芦港" class="cls-12" x="297.14" y="612.2" width="16" height="9" rx="4.5" ry="4.5"/>
    <rect id="梁祝" class="cls-12" x="232" y="612.2" width="16" height="9" rx="4.5" ry="4.5"/>
    <rect id="高桥南" class="cls-12" x="231.5" y="651" width="16" height="9" rx="4.5" ry="4.5"/>
    <rect id="范江岸西路" class="cls-12" x="297.14" y="489" width="16" height="9" rx="4.5" ry="4.5"/>
    <rect id="澥浦" class="cls-12" x="507.5" y="55.5" width="16" height="9" rx="4.5" ry="4.5"/>
    <rect id="金山路" class="cls-12" x="158.5" y="284.5" width="16" height="9" rx="4.5" ry="4.5"/>
    <rect id="奥体中心" class="cls-12" x="207.25" y="284" width="16" height="9" rx="4.5" ry="4.5"/>
    <rect id="慈城" class="cls-12" x="57" y="182" width="16" height="9" rx="4.5" ry="4.5"/>
    <rect id="大通桥" class="cls-12" x="688" y="356" width="16" height="9" rx="4.5" ry="4.5"/>
    <rect id="三官堂" class="cls-12" x="813.5" y="281.92" width="16" height="9" rx="4.5" ry="4.5"/>
    <rect id="路林" class="cls-12" x="770" y="328" width="16" height="9" rx="4.5" ry="4.5"/>
    <rect id="兴海南路" class="cls-12" x="726.5" y="281.92" width="16" height="9" rx="4.5" ry="4.5"/>
    <rect id="红联" class="cls-12" x="1244" y="255" width="16" height="9" rx="4.5" ry="4.5"/>
    <rect id="霞浦" class="cls-12" x="1450" y="321" width="16" height="9" rx="4.5" ry="4.5"/>
    <rect id="盛莫路" class="cls-12" x="1057.25" y="612.2" width="16" height="9" rx="4.5" ry="4.5"/>
    <rect id="海晏北路" class="cls-12" x="942.33" y="612.2" width="16" height="9" rx="4.5" ry="4.5"/>
    <rect id="大卿桥" class="cls-12" x="450.5" y="612.2" width="16" height="9" rx="4.5" ry="4.5"/>
    <rect id="泽民" class="cls-12" x="407.62" y="612.2" width="16" height="9" rx="4.5" ry="4.5"/>
    <rect id="望春桥" class="cls-12" x="364" y="612.2" width="16" height="9" rx="4.5" ry="4.5"/>
    <rect id="宁波火车站" class="cls-12" x="487.5" y="715" width="16" height="9" rx="4.5" ry="4.5"/>
    <rect id="翠柏里" class="cls-12" x="450.5" y="525" width="16" height="9" rx="4.5" ry="4.5"/>
    <rect id="范江岸路" class="cls-12" x="407.62" y="568.5" width="16" height="9" rx="4.5" ry="4.5"/>
    <rect id="体育馆" class="cls-12" x="789" y="545.5" width="16" height="9" rx="4.5" ry="4.5"/>
    <rect id="民安东路" class="cls-12" x="942.33" y="545.5" width="16" height="9" rx="4.5" ry="4.5"/>
    <rect id="明楼" class="cls-12" x="789" y="499" width="16" height="9" rx="4.5" ry="4.5"/>
    <rect id="中兴大桥" class="cls-12" x="783" y="452" width="16" height="9" rx="4.5" ry="4.5"/>
    <rect id="江南" class="cls-12" x="734" y="499" width="16" height="9" rx="4.5" ry="4.5"/>
    <rect id="丽江路" class="cls-12" x="452" y="334.33" width="20" height="9" rx="4.5" ry="4.5"/>
    <rect id="外漕村" class="cls-12" x="614" y="281.92" width="16" height="9" rx="4.5" ry="4.5"/>
    <rect id="柳隘" class="cls-12" x="942.33" y="665" width="16" height="9" rx="4.5" ry="4.5"/>
    <rect id="院士路" class="cls-12" x="942.33" y="413" width="16" height="9" rx="4.5" ry="4.5"/>
    <rect id="倪家堰" class="cls-12" x="656" y="457" width="16" height="9" rx="4.5" ry="4.5"/>
    <rect id="大闸南路" class="cls-12" x="564.5" y="456.5" width="16" height="9" rx="4.5" ry="4.5"/>
    <rect id="外滩大桥" class="cls-12" x="608.5" y="501.5" width="16" height="9" rx="4.5" ry="4.5"/>
</g>
  <g id="station">
    <circle id="东门口" class="cls-12" cx="574" cy="616.5" r="4.5"/>
    <circle id="舟孟北路" class="cls-12" cx="736" cy="616.5" r="4.5"/>
    <circle id="正大路" class="cls-12" cx="639" cy="482.5" r="4.5"/>
    <circle id="压赛堰" class="cls-12" cx="665" cy="400.5" r="4.5"/>
    <circle id="孔浦" class="cls-12" cx="748" cy="360.5" r="4.5"/>
    <circle id="宁波大学" class="cls-12" cx="857" cy="251.5" r="4.5"/>
    <circle id="清水浦" class="cls-12" cx="893" cy="216" r="4.5"/>
    <circle id="五里牌" class="cls-12" cx="977" cy="183.5" r="4.5"/>
    <circle id="枫园" class="cls-12" cx="1039" cy="183.5" r="4.5"/>
    <circle id="聪园路" class="cls-12" cx="1099" cy="183.5" r="4.5"/>
    <circle id="招宝山" class="cls-12" cx="1156" cy="183.5" r="4.5"/>
    <circle id="福明路" class="cls-12" cx="842" cy="616.5" r="4.5"/>
    <circle id="中兴路" class="cls-12" cx="842" cy="668.5" r="4.5"/>
    <circle id="福民公园" class="cls-12" cx="842" cy="550" r="4.5"/>
    <circle id="新天路" class="cls-12" cx="904" cy="550" r="4.5"/>
    <circle id="世纪大道" class="cls-12" cx="893" cy="616.5" r="4.5"/>
    <circle id="福庆北路" class="cls-12" cx="1001" cy="616.5" r="4.5"/>
    <circle id="会展中心" class="cls-12" cx="950" cy="482.5" r="4.5"/>
    <circle id="盎孟港路" class="cls-12" cx="896" cy="361.5" r="4.5"/>
    <circle id="聚贤路" class="cls-12" cx="1004" cy="416.5" r="4.5"/>
    <circle id="沧海路" class="cls-12" cx="885" cy="482.5" r="4.5"/>
    <circle id="明珠路" class="cls-12" cx="916" cy="451.5" r="4.5"/>
    <circle id="剑兰路" class="cls-12" cx="1069" cy="416.5" r="4.5"/>
    <circle id="梅墟路" class="cls-12" cx="1130.5" cy="383" r="4.5"/>
    <circle id="经十二路" class="cls-12" cx="1169" cy="344.5" r="4.5"/>
    <circle id="兴庄路" class="cls-12" cx="777" cy="286.42" r="4.5"/>
    <circle id="华业街" class="cls-12" cx="678" cy="286.42" r="4.5"/>
    <circle id="客运北站" class="cls-12" cx="622" cy="247.5" r="4.5"/>
    <circle id="团桥" class="cls-12" cx="622" cy="213.5" r="4.5"/>
    <circle id="骆兴" class="cls-12" cx="622" cy="179" r="4.5"/>
    <circle id="骆驼北" class="cls-12" cx="609" cy="152.5" r="4.5"/>
    <circle id="镇兴东路" class="cls-12" cx="683" cy="122.5" r="4.5"/>
    <circle id="慈海北路" class="cls-12" cx="580" cy="125.5" r="4.5"/>
    <circle id="汶骆路" class="cls-12" cx="550.5" cy="95" r="4.5"/>
    <circle id="澥浦北" class="cls-12" cx="494" cy="38.5" r="4.5"/>
    <circle id="九龙湖北" class="cls-12" cx="306" cy="50.5" r="4.5"/>
    <circle id="九龙湖" class="cls-12" cx="331" cy="77.5" r="4.5"/>
    <circle id="九龙湖南" class="cls-12" cx="363" cy="109.5" r="4.5"/>
    <circle id="九龙大道" class="cls-12" cx="391" cy="136.5" r="4.5"/>
    <circle id="绕城路" class="cls-12" cx="417" cy="161.5" r="4.5"/>
    <circle id="镇新西路" class="cls-12" cx="445" cy="190.5" r="4.5"/>
    <circle id="城西路" class="cls-12" cx="465" cy="226.5" r="4.5"/>
    <circle id="宁慈路" class="cls-12" cx="465" cy="258" r="4.5"/>
    <circle id="人民北路" class="cls-12" cx="567" cy="286.42" r="4.5"/>
    <circle id="庄桥火车站" class="cls-12" cx="413" cy="288.5" r="4.5"/>
    <circle id="洪大路" class="cls-12" cx="348" cy="288.5" r="4.5"/>
    <circle id="洪塘中路" class="cls-12" cx="281" cy="288.5" r="4.5"/>
    <circle id="江北大道" class="cls-12" cx="215.25" cy="224.5" r="4.5"/>
    <circle id="邵渡桥" class="cls-12" cx="215.25" cy="370.5" r="4.5"/>
    <circle id="菱漕路" class="cls-12" cx="215.25" cy="466.5" r="4.5"/>
    <circle id="金山南路" class="cls-12" cx="166" cy="370.5" r="4.5"/>
    <circle id="五江口" class="cls-12" cx="352" cy="494.5" r="4.5"/>
    <circle id="云飞路" class="cls-12" cx="363" cy="339" r="4.5"/>
    <circle id="长兴路" class="cls-12" cx="123" cy="245.5" r="4.5"/>
    <circle id="官山河" class="cls-12" cx="93" cy="214.5" r="4.5"/>
    <circle id="东环南路" class="cls-12" cx="1125" cy="616.5" r="4.5"/>
    <circle id="邱隘东" class="cls-12" cx="1202" cy="616.5" r="4.5"/>
    <circle id="五乡" class="cls-12" cx="1274" cy="616.5" r="4.5"/>
    <circle id="宝幢" class="cls-12" cx="1316" cy="558.5" r="4.5"/>
    <circle id="邬隘" class="cls-12" cx="1316" cy="493.83" r="4.5"/>
    <circle id="大碶" class="cls-12" cx="1316" cy="429.17" r="4.5"/>
    <circle id="松花江路" class="cls-12" cx="1316" cy="364.5" r="4.5"/>
    <circle id="长山村" class="cls-12" cx="1293" cy="259.5" r="4.5"/>
    <circle id="衙门路" class="cls-12" cx="1208" cy="304.5" r="4.5"/>
    <circle id="富春江路" class="cls-12" cx="1331.75" cy="259.5" r="4.5"/>
    <circle id="太河路" class="cls-12" cx="1409.25" cy="259.5" r="4.5"/>
    <circle id="大港站" class="cls-12" cx="1370.5" cy="259.5" r="4.5"/>
    <circle id="恒山路" class="cls-12" cx="1448" cy="259.5" r="4.5"/>
    <circle id="中河路" class="cls-12" cx="1358" cy="325.5" r="4.5"/>
    <circle id="长江路" class="cls-12" cx="1406" cy="325.5" r="4.5"/>
    <circle id="西门口" class="cls-12" cx="496" cy="616.5" r="4.5"/>
    <circle id="南站西路" class="cls-12" cx="468" cy="669.5" r="4.5"/>
    <circle id="双东路" class="cls-12" cx="459" cy="475.5" r="4.5"/>
    <circle id="徐家漕长乐" class="cls-12" cx="335" cy="616.5" r="4.5"/>
    <circle id="汇士路" class="cls-12" cx="129" cy="682.5" r="4.5"/>
    <circle id="高桥" class="cls-12" cx="184" cy="616.5" r="4.5"/>
    <circle id="高桥西" class="cls-12" cx="132" cy="616.5" r="4.5"/>
    <circle id="柳西" class="cls-12" cx="458" cy="653" r="4.5"/>
    <circle id="白鹤" class="cls-12" cx="705" cy="719.5" r="4.5"/>
    <circle id="仇毕" class="cls-12" cx="797" cy="766.5" r="4.5"/>
    <circle id="矮柳" class="cls-12" cx="862.37" cy="742.5" r="4.5"/>
    <circle id="潘火路" class="cls-12" cx="862.37" cy="792.5" r="4.5"/>
    <circle id="下应北路" class="cls-12" cx="918" cy="909.5" r="4.5"/>
    <circle id="泗港" class="cls-12" cx="950" cy="782.5" r="4.5"/>
    <circle id="曹隘" class="cls-12" cx="950" cy="729.5" r="4.5"/>
    <circle id="富强东路" class="cls-12" cx="1065.25" cy="761.5" r="4.5"/>
    <circle id="百丈东路" class="cls-12" cx="1065.25" cy="684.5" r="4.5"/>
    <circle id="东钱湖" class="cls-12" cx="1130" cy="955.5" r="4.5"/>
    <circle id="云龙" class="cls-12" cx="1066" cy="996" r="4.5"/>
    <circle id="东钱湖北" class="cls-12" cx="1065" cy="905" r="4.5"/>
    <circle id="诚信东路" class="cls-12" cx="1134" cy="845.85" r="4.5"/>
    <circle id="东钱湖东" class="cls-12" cx="1197" cy="845.85" r="4.5"/>
    <circle id="金达南路" class="cls-12" cx="950" cy="955.5" r="4.5"/>
    <circle id="钱湖北路" class="cls-12" cx="785" cy="812.5" r="4.5"/>
    <circle id="四明中路" class="cls-12" cx="723" cy="873.5" r="4.5"/>
    <circle id="南部商务区" class="cls-12" cx="711" cy="935.5" r="4.5"/>
    <circle id="勾章路" class="cls-12" cx="711" cy="986.5" r="4.5"/>
    <circle id="高塘桥" class="cls-12" cx="711" cy="1011.5" r="4.5"/>
    <circle id="狮山" class="cls-12" cx="662" cy="1037.5" r="4.5"/>
    <circle id="朝阳" class="cls-12" cx="584" cy="1037.5" r="4.5"/>
    <circle id="方桥" class="cls-12" cx="549" cy="1048.5" r="4.5"/>
    <circle id="琎琳" class="cls-12" cx="526" cy="1071" r="4.5"/>
    <circle id="南渡" class="cls-12" cx="503" cy="1094" r="4.5"/>
    <circle id="大成东路" class="cls-12" cx="479" cy="1118" r="4.5"/>
    <circle id="金海路" class="cls-12" cx="451" cy="1146" r="4.5"/>
    <circle id="鄞州客运总站" class="cls-12" cx="711" cy="962.5" r="4.5"/>
    <circle id="兴宁桥西" class="cls-12" cx="572" cy="719.5" r="4.5"/>
    <circle id="云霞路" class="cls-12" cx="453" cy="734.5" r="4.5"/>
    <circle id="新典路" class="cls-12" cx="463.5" cy="781" r="4.5"/>
    <circle id="嵩江西路" class="cls-12" cx="642" cy="845.85" r="4.5"/>
    <circle id="嵩江路" class="cls-12" cx="806" cy="845.85" r="4.5"/>
    <circle id="客运中心" class="cls-12" cx="358" cy="755.5" r="4.5"/>
    <circle id="藕池" class="cls-12" cx="358" cy="786.5" r="4.5"/>
    <circle id="轻纺城" class="cls-12" cx="358" cy="821.5" r="4.5"/>
    <circle id="春华路" class="cls-12" cx="128" cy="733.5" r="4.5"/>
    <circle id="云林西路" class="cls-12" cx="128" cy="781.5" r="4.5"/>
    <circle id="古林" class="cls-12" cx="128" cy="829.5" r="4.5"/>
    <circle id="黄古路" class="cls-12" cx="128" cy="877.5" r="4.5"/>
    <circle id="同德路" class="cls-12" cx="323" cy="859.5" r="4.5"/>
    <circle id="布政" class="cls-12" cx="305.14" cy="784.83" r="4.5"/>
    <circle id="环城南路" class="cls-12" cx="305" cy="747" r="4.5"/>
    <circle id="张家潭" class="cls-12" cx="305" cy="824.5" r="4.5"/>
    <circle id="鄞州大道" class="cls-12" cx="322" cy="906.5" r="4.5"/>
    <circle id="栎社" class="cls-12" cx="262" cy="906.5" r="4.5"/>
    <circle id="栎社国际机场" class="cls-12" cx="198" cy="906.5" r="4.5"/>
    <circle id="雅渡" class="cls-12" cx="405" cy="859.5" r="4.5"/>
    <circle id="锡山路" class="cls-12" cx="597" cy="973.5" r="4.5"/>
    <circle id="钟公庙" class="cls-12" cx="611" cy="909.5" r="4.5"/>
    <circle id="钱湖南路" class="cls-12" cx="763" cy="909.5" r="4.5"/>
</g>
  <g id="text">
    <text class="cls-13" transform="translate(544.33 602.5)">鼓楼</text>
    <text class="cls-13" transform="translate(559.33 636.5)">东门口</text>
    <text class="cls-13" transform="translate(560.33 509.5)">外滩大桥</text>
    <text class="cls-13" transform="translate(626.33 450.5)">倪家堰</text>
    <text class="cls-13" transform="translate(648.33 493.5)">正大路</text>
    <text class="cls-13" transform="translate(676.33 404.5)">压赛堰</text>
    <text class="cls-13" transform="translate(698.33 350.5)">大通桥</text>
    <text class="cls-13" transform="translate(569.33 250.5)">客运北站</text>
    <text class="cls-13" transform="translate(589.33 217.5)">团桥</text>
    <text class="cls-13" transform="translate(589.33 182.5)">骆兴</text>
    <text class="cls-13" transform="translate(564.33 156.5)">骆驼北</text>
    <text class="cls-13" transform="translate(526.33 129.5)">慈海北路</text>
    <text class="cls-13" transform="translate(507.83 99)">汶骆路</text>
    <text class="cls-13" transform="translate(477.33 64.5)">澥浦</text>
    <text class="cls-13" transform="translate(445.33 42.5)">澥浦北</text>
    <text class="cls-13" transform="translate(252.33 53.5)">九龙湖北</text>
    <text class="cls-13" transform="translate(288.33 81.5)">九龙湖</text>
    <text class="cls-13" transform="translate(310.33 113.5)">九龙湖南</text>
    <text class="cls-13" transform="translate(337.33 139.5)">九龙大道</text>
    <text class="cls-13" transform="translate(369.33 165.5)">绕城路</text>
    <text class="cls-13" transform="translate(389.33 194.5)">镇新西路</text>
    <text class="cls-13" transform="translate(423.33 230.5)">城西路</text>
    <text class="cls-13" transform="translate(423.33 260.5)">宁慈路</text>
    <text class="cls-13" transform="translate(761.33 364.5)">孔浦</text>
    <text class="cls-13" transform="translate(794.33 336.5)">路林</text>
    <text class="cls-13" transform="translate(839.33 288.5)">三官堂</text>
    <text class="cls-13" transform="translate(871.33 255.5)">宁波大学</text>
    <text class="cls-13" transform="translate(908.33 220)">清水浦</text>
    <text class="cls-13" transform="translate(962.33 205.5)">五里牌</text>
    <text class="cls-13" transform="translate(1029.33 205.5)">枫园</text>
    <text class="cls-13" transform="translate(1084.33 205.5)">聪园路</text>
    <text class="cls-13" transform="translate(1141.33 205.5)">招宝山</text>
    <text class="cls-13" transform="translate(1253.33 281.5)">红联</text>
    <text class="cls-13" transform="translate(1225.33 309.5)">衙门路</text>
    <text class="cls-13" transform="translate(501.33 450.5)">大闸南路</text>
    <text class="cls-13" transform="translate(544.33 656.5)">城隍庙</text>
    <text class="cls-13" transform="translate(467.33 656.5)">柳西</text>
    <text class="cls-13" transform="translate(552.33 706.5)">兴宁桥西</text>
    <text class="cls-13" transform="translate(599.33 739.5)">兴宁桥东</text>
    <text class="cls-13" transform="translate(695.33 739.5)">白鹤</text>
    <text class="cls-13" transform="translate(740.33 739.5)">儿童公园</text>
    <text class="cls-13" transform="translate(806.33 771.5)">仇毕</text>
    <text class="cls-13" transform="translate(871.83 746.5)">矮柳</text>
    <text class="cls-13" transform="translate(871.83 867.5)">嵩江东路</text>
    <text class="cls-13" transform="translate(871.83 796.5)">潘火路</text>
    <text class="cls-13" transform="translate(803.33 927.5)">南高教园区</text>
    <text class="cls-13" transform="translate(1021.33 976.5)">小洋江</text>
    <text class="cls-13" transform="translate(1078.33 867.5)">盛莫南路</text>
    <text class="cls-13" transform="translate(932.33 976.5)">金达南路</text>
    <text class="cls-13" transform="translate(1115.33 976.5)">东钱湖</text>
    <text class="cls-13" transform="translate(1078.08 1000)">云龙</text>
    <text class="cls-13" transform="translate(1078.33 908.5)">东钱湖北</text>
    <text class="cls-13" transform="translate(1116.33 833.5)">诚信东路</text>
    <text class="cls-13" transform="translate(1179.33 833.5)">东钱湖东</text>
    <text class="cls-13" transform="translate(1078.83 1045)">横溪</text>
    <text class="cls-13" transform="translate(650.33 895.5)">鄞州区政府</text>
    <text class="cls-13" transform="translate(650.33 939.5)">南部商务区</text>
    <text class="cls-13" transform="translate(640.33 966.5)">鄞州客运总站</text>
    <text class="cls-13" transform="translate(670.33 990.5)">勾章路</text>
    <text class="cls-13" transform="translate(670.33 1015.5)">高塘桥</text>
    <text class="cls-13" transform="translate(653.33 1060.5)">狮山</text>
    <text class="cls-13" transform="translate(596.33 1023.5)">和益</text>
    <text class="cls-13" transform="translate(556.33 977.5)">锡山路</text>
    <text class="cls-13" transform="translate(573.33 1060.5)">朝阳</text>
    <text class="cls-13" transform="translate(514.33 1050.5)">方桥</text>
    <text class="cls-13" transform="translate(493.33 1074)">琎琳</text>
    <text class="cls-13" transform="translate(467.33 1096.5)">南渡</text>
    <text class="cls-13" transform="translate(423.33 1119.5)">大成东路</text>
    <text class="cls-13" transform="translate(409.33 1148)">金海路</text>
    <text class="cls-13" transform="translate(726.33 1041.5)">姜山</text>
    <text class="cls-13" transform="translate(736.33 877.5)">四明中路</text>
    <text class="cls-13" transform="translate(743 927.5)">钱湖南路</text>
    <text class="cls-13" transform="translate(717.33 833.5)">锦寓路</text>
    <text class="cls-13" transform="translate(791.33 867.5)">嵩江路</text>
    <text class="cls-13" transform="translate(898.33 927.5)">下应北路</text>
    <text class="cls-13" transform="translate(911.33 833.5)">大洋江</text>
    <text class="cls-13" transform="translate(967.33 867.5)">启明路</text>
    <text class="cls-13" transform="translate(960.01 786.5)">泗港</text>
    <text class="cls-13" transform="translate(960.01 733.5)">曹隘</text>
    <text class="cls-13" transform="translate(1078.33 765.5)">富强东路</text>
    <text class="cls-13" transform="translate(1078.33 688.5)">百丈东路</text>
    <text class="cls-13" transform="translate(960.33 687.5)">柳隘</text>
    <text class="cls-13" transform="translate(797.33 816.5)">钱湖北路</text>
    <text class="cls-13" transform="translate(480.33 636.5)">西门口</text>
    <text class="cls-13" transform="translate(473.33 534.5)">翠柏里</text>
    <text class="cls-13" transform="translate(416.33 479.5)">双东路</text>
    <text class="cls-13" transform="translate(337.33 514.5)">五江口</text>
    <text class="cls-13" transform="translate(480.33 345.5)">丽江路</text>
    <text class="cls-13" transform="translate(388.33 309.5)">庄桥火车站</text>
    <text class="cls-13" transform="translate(333.33 309.5)">洪大路</text>
    <text class="cls-13" transform="translate(261.33 309.5)">洪塘中路</text>
    <text class="cls-13" transform="translate(228.83 228.5)">江北大道</text>
    <text class="cls-13" transform="translate(228.83 374.5)">邵渡桥</text>
    <text class="cls-13" transform="translate(228.83 470.5)">菱漕路</text>
    <text class="cls-13" transform="translate(114.33 374.5)">金山南路</text>
    <text class="cls-13" transform="translate(117.33 292.5)">金山路</text>
    <text class="cls-13" transform="translate(78.33 249.5)">长兴路</text>
    <text class="cls-13" transform="translate(51.33 219.5)">官山河</text>
    <text class="cls-13" transform="translate(27.33 190.5)">慈城</text>
    <text class="cls-13" transform="translate(228.83 276.5)">奥体中心</text>
    <text class="cls-13" transform="translate(492.33 739.5)">宁波火车站</text>
    <text class="cls-13" transform="translate(468.33 602.5)">大卿桥</text>
    <text class="cls-13" transform="translate(421.33 636.5)">泽民</text>
    <text class="cls-13" transform="translate(356.33 575.5)">范江岸路</text>
    <text class="cls-13" transform="translate(370.33 636.5)">望春桥</text>
    <text class="cls-13" transform="translate(314.33 602.5)">徐家漕长乐</text>
    <text class="cls-13" transform="translate(240.33 514.5)">范江岸西路</text>
    <text class="cls-13" transform="translate(348 360.67)">云飞路</text>
    <text class="cls-13" transform="translate(271.33 636.5)">芦港</text>
    <text class="cls-13" transform="translate(263.33 673.5)">望童路</text>
    <text class="cls-13" transform="translate(197.33 673.5)">高桥南</text>
    <text class="cls-13" transform="translate(87.33 685.5)">汇士路</text>
    <text class="cls-13" transform="translate(174.33 636.5)">高桥</text>
    <text class="cls-13" transform="translate(117.33 636.5)">高桥西</text>
    <text class="cls-13" transform="translate(250.33 602.5)">梁祝</text>
    <text class="cls-13" transform="translate(361.33 723.5)">丽园南路</text>
    <text class="cls-13" transform="translate(364.33 656.5)">丽园北路</text>
    <text class="cls-13" transform="translate(476.33 782.5)">新典路</text>
    <text class="cls-13" transform="translate(516.33 867.5)">广德湖北路</text>
    <text class="cls-13" transform="translate(621.33 867.5)">嵩江西路</text>
    <text class="cls-13" transform="translate(437.33 723.5)">云霞路</text>
    <text class="cls-13" transform="translate(475.33 687.5)">南站西路</text>
    <text class="cls-13" transform="translate(369.33 759.5)">客运中心</text>
    <text class="cls-13" transform="translate(369.33 790.5)">藕池</text>
    <text class="cls-13" transform="translate(369.33 824.5)">轻纺城</text>
    <text class="cls-13" transform="translate(88.33 737.5)">春华路</text>
    <text class="cls-13" transform="translate(78.33 785.5)">云林西路</text>
    <text class="cls-13" transform="translate(98.33 833.5)">古林</text>
    <text class="cls-13" transform="translate(88.33 881.5)">黄古路</text>
    <text class="cls-13" transform="translate(330.33 847.5)">石碶</text>
    <text class="cls-13" transform="translate(307.33 881.5)">同德路</text>
    <text class="cls-13" transform="translate(263.33 828.5)">张家潭</text>
    <text class="cls-13" transform="translate(273.33 788.5)">布政</text>
    <text class="cls-13" transform="translate(253.33 749.5)">环城南路</text>
    <text class="cls-13" transform="translate(263.33 712.5)">联丰路</text>
    <text class="cls-13" transform="translate(302.33 927.5)">鄞州大道</text>
    <text class="cls-13" transform="translate(252.33 927.5)">栎社</text>
    <text class="cls-13" transform="translate(167.33 927.5)">栎社国际机场</text>
    <text class="cls-13" transform="translate(654.33 636.5)">江厦桥东</text>
    <text class="cls-13" transform="translate(654.33 687.5)">七塔寺</text>
    <text class="cls-13" transform="translate(716.33 636.5)">舟孟北路</text>
    <text class="cls-13" transform="translate(747.33 602.75)">樱花公园</text>
    <text class="cls-13" transform="translate(758.33 572.5)">体育馆</text>
    <text class="cls-13" transform="translate(690.33 572.5)">惊驾路</text>
    <text class="cls-13" transform="translate(805.33 523.5)">明楼</text>
    <text class="cls-13" transform="translate(734.33 460.5)">中兴大桥</text>
    <text class="cls-13" transform="translate(743.33 523.5)">江南</text>
    <text class="cls-13" transform="translate(827.33 636.5)">福明路</text>
    <text class="cls-13" transform="translate(827.33 687.5)">中兴路</text>
    <text class="cls-13" transform="translate(822.33 572.5)">福民公园</text>
    <text class="cls-13" transform="translate(890.33 572.5)">新天路</text>
    <text class="cls-13" transform="translate(873.33 636.5)">世纪大道</text>
    <text class="cls-14" transform="translate(960.33 602.5)">海晏北路</text>
    <text class="cls-13" transform="translate(960.33 537.5)">民安东路</text>
    <text class="cls-13" transform="translate(960.01 486.5)">会展中心</text>
    <text class="cls-13" transform="translate(908.33 362.5)">盎孟港路</text>
    <text class="cls-13" transform="translate(762.33 272.5)">兴庄路</text>
    <text class="cls-13" transform="translate(685.33 272.5)">兴海南路</text>
    <text class="cls-13" transform="translate(625.33 126.5)">镇兴东路</text>
    <text class="cls-13" transform="translate(663.33 306.5)">华业街</text>
    <text class="cls-13" transform="translate(547.33 306.5)">人民北路</text>
    <text class="cls-13" transform="translate(630.33 272.5)">外漕村</text>
    <text class="cls-13" transform="translate(903.33 418.5)">院士路</text>
    <text class="cls-13" transform="translate(989.33 436.5)">聚贤路</text>
    <text class="cls-13" transform="translate(870.33 454.5)">明珠路</text>
    <text class="cls-13" transform="translate(839.33 486.5)">沧海路</text>
    <text class="cls-13" transform="translate(1054.33 436.5)">剑兰路</text>
    <text class="cls-13" transform="translate(1146.33 386.5)">梅墟路</text>
    <text class="cls-13" transform="translate(1184.33 348.5)">经十二路</text>
    <text class="cls-13" transform="translate(981.33 636.5)">福庆北路</text>
    <text class="cls-13" transform="translate(1105.33 636.5)">东环南路</text>
    <text class="cls-13" transform="translate(1187.33 636.5)">邱隘东</text>
    <text class="cls-13" transform="translate(1264.33 636.5)">五乡</text>
    <text class="cls-13" transform="translate(1283.33 562.5)">宝幢</text>
    <text class="cls-13" transform="translate(1286.33 498.5)">邬隘</text>
    <text class="cls-13" transform="translate(1286.33 433.5)">大碶</text>
    <text class="cls-13" transform="translate(1266.33 369.5)">松花江路</text>
    <text class="cls-13" transform="translate(1344.33 349.5)">中河路</text>
    <text class="cls-13" transform="translate(1278.33 246.5)">长山村</text>
    <text class="cls-13" transform="translate(1311.33 281.5)">富春江路</text>
    <text class="cls-13" transform="translate(1394.33 281.5)">太河路</text>
    <text class="cls-13" transform="translate(1355.33 246.5)">大港站</text>
    <text class="cls-13" transform="translate(1433.33 246.5)">恒山路</text>
    <text class="cls-13" transform="translate(1392.33 349.5)">长江路</text>
    <text class="cls-13" transform="translate(1446.33 349.5)">霞浦</text>
    <text class="cls-13" transform="translate(1060.33 602.75)">盛莫路</text>
    <text class="cls-13" transform="translate(392.33 881.5)">雅渡</text>
    <text class="cls-13" transform="translate(543.33 927.5)">庙堰</text>
    <text class="cls-13" transform="translate(596.33 895.5)">钟公庙</text>
  </g>
  <g id="介绍">
    <path class="cls-15" d="M1340.41,1051.77h-4.2v-9.25h4c2,.09,3,.89,3.13,2.41a2.1,2.1,0,0,1-1.16,1.92,2.41,2.41,0,0,1,1.56,2.28Q1343.71,1051.77,1340.41,1051.77Zm-2.73-7.91v2.46H1340c1.16,0,1.76-.47,1.79-1.3s-.64-1.13-1.75-1.16Zm2.46,3.8h-2.46v2.81h2.59c1.25,0,1.88-.47,1.88-1.43S1341.42,1047.69,1340.14,1047.66Z"/>
    <path class="cls-15" d="M1350.25,1051.77h-4.2v-9.25h4c2,.09,3,.89,3.13,2.41a2.1,2.1,0,0,1-1.16,1.92,2.41,2.41,0,0,1,1.56,2.28C1353.56,1050.89,1352.46,1051.77,1350.25,1051.77Zm-2.72-7.91v2.46h2.28c1.16,0,1.75-.47,1.78-1.3s-.64-1.13-1.74-1.16Zm2.46,3.8h-2.46v2.81h2.59c1.25,0,1.88-.47,1.88-1.43S1351.27,1047.69,1350,1047.66Z"/>
    <path class="cls-15" d="M1363,1044.89l-1.56.44a1.9,1.9,0,0,0-2.06-1.65c-1.25,0-1.89.42-1.92,1.25-.12.6.58,1,2.1,1.3q3.8.7,3.71,3-.13,2.6-3.62,2.68t-4.11-2.86l1.52-.45c.14,1.38,1,2,2.54,2,1.37,0,2.06-.46,2.06-1.38.12-.69-.66-1.19-2.32-1.52q-3.63-.72-3.49-2.73.14-2.51,3.49-2.59Q1362.33,1042.38,1363,1044.89Z"/>
    <path class="cls-15" d="M1365.63,1050h1.84v1.79h-1.84Z"/>
    <path class="cls-15" d="M1377.89,1045.06l-1.61.45a2.5,2.5,0,0,0-2.37-1.79c-1.75.09-2.68,1.24-2.77,3.44s.93,3.39,2.68,3.45a2.43,2.43,0,0,0,2.6-2.19l1.65.4a3.83,3.83,0,0,1-4.2,3.08q-4.24-.09-4.34-4.74.09-4.68,4.47-4.82A4,4,0,0,1,1377.89,1045.06Z"/>
    <path class="cls-15" d="M1386.47,1049.94v0a16.49,16.49,0,0,1-.08-1.65v-5.72h1.47v9.25h-1.52q-2.68-3.93-3.93-5.81c-.33-.57-.61-1.1-.85-1.61h0a12.48,12.48,0,0,1,.13,1.83v5.59h-1.48v-9.25h1.57q2.64,3.88,3.84,5.76A8.93,8.93,0,0,1,1386.47,1049.94Z"/>
    <path class="cls-15" d="M1396.86,1049.94v0q-.09-.9-.09-1.65v-5.72h1.48v9.25h-1.52q-2.68-3.93-3.94-5.81c-.32-.57-.61-1.1-.84-1.61h0a11.24,11.24,0,0,1,.13,1.83v5.59h-1.47v-9.25h1.56q2.64,3.88,3.85,5.76A10.29,10.29,0,0,1,1396.86,1049.94Z"/>
    <path class="cls-15" d="M1405.15,1051.77H1401v-9.25h4c2,.09,3,.89,3.13,2.41a2.1,2.1,0,0,1-1.16,1.92,2.41,2.41,0,0,1,1.56,2.28Q1408.45,1051.77,1405.15,1051.77Zm-2.73-7.91v2.46h2.28c1.16,0,1.76-.47,1.79-1.3s-.65-1.13-1.75-1.16Zm2.46,3.8h-2.46v2.81H1405c1.25,0,1.88-.47,1.88-1.43S1406.16,1047.69,1404.88,1047.66Z"/>
    <path class="cls-15" d="M1416.85,1042.52h1.52v5.36c.09,2.8-1.2,4.14-3.89,4q-3.84.13-3.75-4v-5.36h1.52v5.36c0,1.88.72,2.79,2.23,2.73s2.43-.85,2.37-2.73Z"/>
    <path class="cls-15" d="M1429,1045.06l-1.61.45a2.48,2.48,0,0,0-2.36-1.79q-2.64.13-2.78,3.44,0,3.36,2.69,3.45a2.42,2.42,0,0,0,2.59-2.19l1.65.4a3.83,3.83,0,0,1-4.2,3.08q-4.24-.09-4.33-4.74c.06-3.12,1.54-4.73,4.46-4.82A4,4,0,0,1,1429,1045.06Z"/>
    <path class="cls-15" d="M1431.36,1050h1.83v1.79h-1.83Z"/>
    <path class="cls-15" d="M1443.61,1045.06l-1.61.45a2.48,2.48,0,0,0-2.36-1.79c-1.76.09-2.69,1.24-2.77,3.44s.92,3.39,2.68,3.45a2.42,2.42,0,0,0,2.59-2.19l1.65.4a3.83,3.83,0,0,1-4.2,3.08q-4.24-.09-4.33-4.74c.06-3.12,1.54-4.73,4.46-4.82A4,4,0,0,1,1443.61,1045.06Z"/>
    <path class="cls-15" d="M1450.2,1042.34q4.24.27,4.56,4.78-.13,4.65-4.65,4.78-4.38-.23-4.56-4.74Q1445.78,1042.57,1450.2,1042.34Zm-.13,8.31q3-.14,3.08-3.49-.23-3.21-3-3.48-2.87.22-3,3.48Q1447.26,1050.43,1450.07,1050.65Z"/>
    <path class="cls-15" d="M1464.6,1042.52h1.84v9.25H1465v-5.5c0-.45,0-1.12.13-2h-.05a7.78,7.78,0,0,1-.53,1.61l-2.28,5.9h-1.07l-2.33-5.9c-.21-.6-.37-1.13-.49-1.61h0q.09,1,.09,2v5.5h-1.39v-9.25h1.83l2.51,6.25a3.53,3.53,0,0,0,.26.76,1.46,1.46,0,0,0,.09.32c.15-.42.29-.78.41-1.08Z"/>
    <path class="cls-16" d="M1281,1012.25v5.87h-1.93v-5.87Zm11.11,9.49h-12.73v-1.62h25.41v1.62Zm-9.23-9.49H1305v5.87h-1.93v-4.24h-20.16Zm9.23,11.36h2v11.58h-9.67l-.88-1.56h8.55Zm0-12.36a1.5,1.5,0,0,1-1.56-1.56,1.56,1.56,0,1,1,3.12,0A1.47,1.47,0,0,1,1292.15,1011.25Z"/>
    <path class="cls-16" d="M1294.45,1035.49H1284.3l-1.21-2.16h8.76v-10h2.6Zm-9.8-.6h9.2v-11h-1.39v10h-8.34Zm20.48-12.85h-26v-2.22h26Zm-25.41-.6h24.8v-1h-24.8Zm25.59-3h-2.53v-4.24h-20.16V1012h22.69Zm-1.93-.6h1.33v-5.27h-21.49v1h20.16Zm-22,.6h-2.53V1012h2.53Zm-1.93-.6h1.33v-5.27h-1.33Zm12.74-6.27h0a1.79,1.79,0,0,1-1.84-1.84,1.86,1.86,0,0,1,3.72,0,1.76,1.76,0,0,1-1.84,1.88Zm0-3.12a1.23,1.23,0,0,0-1.25,1.29c0,.77.43,1.16,1.27,1.23s1.2-.43,1.25-1.28A1.22,1.22,0,0,0,1292.14,1008.43Z"/>
    <path class="cls-16" d="M1311.5,1020.43a1.5,1.5,0,0,1-1.56-1.56,1.48,1.48,0,0,1,1.56-1.56,1.51,1.51,0,0,1,1.56,1.56A1.47,1.47,0,0,1,1311.5,1020.43Zm4.31,3.62-3.62,11.2h-1.93l3.55-11.2Zm-2-11.67a1.6,1.6,0,0,1-1.62-1.63,1.57,1.57,0,0,1,1.62-1.62,1.64,1.64,0,0,1,1.63,1.62A1.59,1.59,0,0,1,1313.81,1012.38Zm5.68,6.61v8.62l-1.81,7.64h-2.12l2-8v-16.67h1.93Zm1.88,0h15.91v5.25l-.12.06-7.24,4.87,7.24,4.24v2.09l-8.93-5.21-8.86,5.28v-1.88l7.18-4.4-5.93-3.55v-2l7.55,4.43,7.18-4.74v-2.81h-14Zm7.67-1.24h-2v-5.5h-5.68v-1.62h5.68v-1.87h2v1.87h8.87l-.69,6h-1.93l.56-4.37H1329Z"/>
    <path class="cls-16" d="M1319.07,1036.1v-2.57l6.9-4.23-5.65-3.39v-2.7l7.84,4.61,6.89-4.56v-2.34h-14v-2.23h16.51v5.73l-.29.15-6.81,4.58,7,4.09V1036l-9.23-5.39Zm.6-2.24V1035l8.56-5.1,8.63,5v-1.39l-7.51-4.4,7.63-5.13v-4.76h-15.31v1h14v3.27l-7.47,4.94-7.26-4.27v1.31l6.21,3.72Zm-1.75,1.7h-2.74l2.09-8.34v-16.89h2.53v17.28Zm-2-.61h1.5l1.75-7.41v-16.61h-1.33v16.37Zm-3.54.61h-2.57l3.75-11.81h2.63Zm-1.74-.61h1.3l3.43-10.6H1314Zm.83-14.22h0a1.8,1.8,0,0,1-1.84-1.85,1.78,1.78,0,0,1,1.86-1.87,1.81,1.81,0,0,1,1.86,1.83,1.77,1.77,0,0,1-1.84,1.89Zm0-3.12c-.77,0-1.17.41-1.24,1.28s.43,1.16,1.27,1.24a1.17,1.17,0,0,0,1.25-1.28A1.21,1.21,0,0,0,1311.48,1017.61Zm17.86.44h-2.59v-5.5h-5.68v-2.22h5.68v-1.87h2.59v1.87h8.9l-.75,6.59h-2.55l.57-4.37h-6.17Zm-2-.6h1.39V1012h7.45l-.56,4.37H1337l.62-5.39h-8.83v-1.87h-1.39v1.87h-5.68v1h5.68Zm-13.54-4.77h0a1.93,1.93,0,0,1,0-3.85,1.94,1.94,0,0,1,1.94,1.89,1.89,1.89,0,0,1-1.91,2Zm0-3.25c-.79,0-1.21.47-1.3,1.35a1.3,1.3,0,0,0,1.33,1.3,1.28,1.28,0,0,0,1.32-1.35A1.32,1.32,0,0,0,1313.79,1009.43Z"/>
    <path class="cls-16" d="M1341.84,1030.48l8-2.12v1.75l-8,2.18Zm3-2.25v-10.36H1342v-1.56h2.81v-7.12h2v7.12h2.94v1.56h-2.94v10.36Zm6.18-.5v-16.91h2v16.91l-1.37,7.52h-2Zm3.55-8.05v-1.62h4.81v14.73h-4.62l-.87-1.62h3.49v-11.49Zm0-7.24v-1.62h7.18l-.12-2h1.87l.12,2h2.69v1.62h-2.5l.88,13.36,3.18-7.87h1.87l-4.37,10.86,2.19,2.81.68-5.18,1.63,1.31-.88,7.52h-.81l-3.81-4.46-2,4.46h-2.13l2.81-6-1.18-16.79Zm14-.19a1.5,1.5,0,0,1-1.57-1.56,1.48,1.48,0,0,1,1.57-1.56,1.52,1.52,0,0,1,1.56,1.56A1.48,1.48,0,0,1,1368.56,1012.25Z"/>
    <path class="cls-16" d="M1369.26,1035.56H1368l-3.59-4.21-1.88,4.21h-2.79l3-6.39-1.16-16.43h-7.33v-2.22h7.16l-.12-2h2.47l.13,2h2.7v2.22h-2.48l.77,11.73,2.77-6.84h2.52l-4.47,11.12,1.63,2.1.67-5,2.16,1.75Zm-.94-.61h.4l.83-7.09-1.08-.87-.71,5.37-2.73-3.52,4.27-10.61h-1.23l-3.6,8.9-1-15H1366v-1h-2.67l-.12-2H1362l.12,2h-7.2v1h7.29l1.21,17.15-2.64,5.66h1.45l2.11-4.72Zm-16.43.61h-2.61l1.44-7.85v-17.19h2.59v17.21ZM1350,1035h1.39l1.33-7.27v-16.56h-1.39v16.67Zm9.68-1.86h-5.1l-1.2-2.22h3.7V1020h-2.81v-2.22h5.41Zm-4.74-.6h4.14v-14.13h-4.21v1h2.81v12.09h-3.29Zm-13.4.19v-2.43l8.59-2.28v2.36Zm.6-2v1.19l7.39-2v-1.13Zm5-2.18h-2.59v-10.36h-2.81V1016h2.81v-7.12h2.59V1016h2.94v2.16h-2.94Zm-2-.6h1.39v-10.36h2.94v-1h-2.94v-7.11h-1.39v7.11h-2.81v1h2.81Zm23.41-15.38h0a1.86,1.86,0,0,1,0-3.72,1.83,1.83,0,0,1,1.87,1.84,1.78,1.78,0,0,1-1.85,1.88Zm0-3.12c-.78,0-1.17.42-1.25,1.29s.43,1.16,1.27,1.23,1.2-.43,1.26-1.28A1.22,1.22,0,0,0,1368.54,1009.43Z"/>
    <path class="cls-16" d="M1382.29,1033.48h20.22l-.87,1.59H1381l-2.75-4.84-2.5,5h-1.93l3.18-6.77-2.68-5.31h2.06l1.68,3.06,2.44-5.87h-6.81l6-8.92H1374v-1.56h9l-6,8.86h6.37l-4,9.61Zm16.48-17.29H1393v2.93h4.19v1.62H1393v3.12h7.87v1.63H1393v3h8.49v1.63H1393v2.43h-2v-2.43h-8.43v-1.63H1391v-3h-7.68v-1.63H1391v-3.12h-6.93v-1.62H1391v-2.93h-8.49v-1.63H1391v-2.74h-6.93v-1.63H1391v-1.31h2v1.31h7.74v4.37h1.5v1.63h-1.5v4.55h-2Zm-5.75-1.63h5.75v-2.74H1393Z"/>
    <path class="cls-16" d="M1375.92,1035.49h-2.6l3.33-7.07-2.84-5.61h2.73l1.46,2.67,2-4.87h-6.92l6-8.93h-5.41v-2.16h9.85l-6,8.86h6.25l-4.11,9.89,2.83,4.91H1403l-1.2,2.19h-21l-2.55-4.5Zm-1.65-.6h1.28l2.66-5.3,2.94,5.18h20.31l.54-1h-19.89l-3.15-5.46,3.88-9.34h-6.49l6.05-8.86h-8.11v1h5.94l-6,8.92h6.69l-2.85,6.87-1.9-3.46h-1.39l2.53,5Zm19-2h-2.59v-2.43h-8.43v-2.23h8.43v-2.45h-7.68v-2.23h7.68V1021h-6.93v-2.22h6.93v-2.33h-8.49v-2.23h8.49v-2.14h-6.93v-2.23h6.93v-1.31h2.59v1.31h7.74v4.37h1.5v2.23h-1.5V1021h-2.59v-4.55h-5.15v2.33h4.19V1021h-4.19v2.52h7.87v2.23h-7.87v2.45h8.49v2.23h-8.49Zm-2-.6h1.39v-2.43h8.49v-1h-8.49v-3.65h7.87v-1h-7.87v-3.72h4.19v-1h-4.19v-3.53h6.35v4.55h1.39v-4.55h1.5v-1h-1.5v-4.37h-7.74v-1.31h-1.39v1.31h-6.93v1h6.93v3.34h-8.49v1h8.49v3.53h-6.93v1h6.93v3.72h-7.68v1h7.68v3.65h-8.43v1h8.43Zm7.74-17.44h-6.35v-3.34h6.35Zm-5.75-.6h5.15v-2.14h-5.15Z"/>
    <path class="cls-16" d="M1406.07,1018.74h4.37V1031l4.31-3.37v2.18l-7.43,6v-2.19l1.12-1v-12.29h-2.62v-1.63Zm3.12-5.55a1.62,1.62,0,0,1-1.68-1.69,1.6,1.6,0,0,1,1.68-1.68,1.65,1.65,0,0,1,1.69,1.68A1.62,1.62,0,0,1,1409.19,1013.19Zm4.49,3.81v-2.06l10.49-6.12,10,6.18v2.25l-10.05-6.31Zm20.1,11-.31,7.15h-16.79v-18.07h2v16.48h13l.32-6.81Zm-15-.31,11-10.49h2.37l-11,10.49Z"/>
    <path class="cls-16" d="M1407,1036.44v-3l1.12-1v-11.86h-2.62v-2.23h5.22v12l4.31-3.37v3Zm.6-2.67v1.42l6.83-5.48v-1.42l-4.31,3.37v-12.61h-4v1h2.62v12.73Zm26.14,1.66h-17.38v-18.67h2.6v10.33l10.69-10.21h3.24L1421.3,1028H1419v5.27h12.46l.32-7.07,2.33,1.66Zm-16.78-.6h16.2l.3-6.7-1.17-.83-.3,6.54h-13.63V1028h-.33l.33-.31v-10.3H1417Zm2.57-7.46h1.5l10.36-9.88h-1.5Zm14.91-9.58-10.36-6.5-10.72,6.23v-2.76l10.8-6.29,10.28,6.36Zm-10.35-7.2,9.75,6.11v-1.53l-9.69-6-10.18,5.94v1.36Zm-14.92,2.9h0a1.93,1.93,0,0,1-2-2,1.9,1.9,0,0,1,2-2,2,2,0,0,1,2,2,1.92,1.92,0,0,1-2,2Zm0-3.37c-.85,0-1.29.48-1.36,1.41a1.39,1.39,0,0,0,2.77,0A1.35,1.35,0,0,0,1409.17,1010.12Z"/>
    <path class="cls-16" d="M1441,1029v-11.36h-3.43V1016H1441v-7h2v7h3.81v1.62H1443V1029Zm-3.3,3.06,9.48-3.81v1.94l-9.48,3.77Zm24.9,1.19v1.59h-16.48l5-11.58h2.06l-4.25,10Zm-8.68-11.55h-7.36v-1.62h19.6v1.62Zm-6.17-11h17.35v1.63h-17.35Zm15,14.42,3.55,9.71h-2.06l-.56-1.59-2.93-8.12Z"/>
    <path class="cls-16" d="M1466.73,1035.12H1464l-.63-1.79-3.08-8.52H1463Zm-2.27-.6h1.41l-3.33-9.11h-1.36Zm-1.54.6h-17.23l5.25-12.18h2.71l-4.24,10h13.51Zm-16.32-.6h15.72v-1H1448.5l4.24-10h-1.41Zm-9.18-.13v-2.55l10.08-4v2.58Zm.6-2.15v1.26l8.88-3.54v-1.28Zm5.3-3h-2.6v-11.36h-3.43v-2.22h3.43v-7.06h2.6v7.06h3.81v2.22h-3.81Zm-2-.6h1.4v-11.36h3.81v-1h-3.81v-7h-1.4v7h-3.43v1h3.43Zm25.16-6.7h-20.2v-2.23h20.2Zm-19.6-.6h19v-1h-19Zm18.54-8.76h-18v-2.23h18Zm-17.35-.6h16.75v-1h-16.75Z"/>
    <polyline class="cls-15" points="1239.81 1050.53 1239.81 994.63 1251.97 991 1251.97 1050.53"/>
    <path class="cls-15" d="M1324.58,1051.83c-6.95-6.72-14.61-10-23.43-10.1h-.2c-7.45,0-15.53,3.38-23.4,9.76l-1.14-1.4c8.27-6.71,16.84-10.21,24.76-10.16,9.3.08,17.36,3.55,24.67,10.61Z"/>
    <rect class="cls-15" x="1285.73" y="1044.25" width="1.8" height="6.93"/>
    <rect class="cls-15" x="1290.55" y="1042.38" width="1.8" height="8.81"/>
    <rect class="cls-15" x="1295.37" y="1041.47" width="1.8" height="9.71"/>
    <rect class="cls-15" x="1300.19" y="1040.83" width="1.8" height="10.35"/>
    <rect class="cls-15" x="1305.01" y="1041.47" width="1.8" height="9.71"/>
    <rect class="cls-15" x="1309.83" y="1042.38" width="1.8" height="8.81"/>
    <rect class="cls-15" x="1314.65" y="1044.64" width="1.8" height="6.54"/>
    <path class="cls-15" d="M1269.75,1050.53c-.12-15.24.82-58.67-6.32-58.67-6.31,0-6.19,43.43-6.31,58.67"/>
    <path class="cls-15" d="M1222.41,1013.12v37.13h12.76v-37.13Zm9.67,7.54h-7.73V1016h7.73Z"/>
    <rect class="cls-17" x="1224.35" y="1023.68" width="7.72" height="1.2"/>
    <rect class="cls-17" x="1224.35" y="1041.98" width="7.72" height="1.2"/>
    <rect class="cls-17" x="1224.35" y="1038.32" width="7.72" height="1.2"/>
    <rect class="cls-17" x="1224.35" y="1034.66" width="7.72" height="1.2"/>
    <rect class="cls-17" x="1224.35" y="1031" width="7.72" height="1.2"/>
    <rect class="cls-17" x="1224.35" y="1027.34" width="7.72" height="1.2"/>
    <rect class="cls-17" x="1241.37" y="997.69" width="6.9" height="1.2"/>
    <rect class="cls-17" x="1241.34" y="1017.44" width="6.9" height="1.2"/>
    <rect class="cls-17" x="1241.31" y="1013.49" width="6.9" height="1.2"/>
    <rect class="cls-17" x="1241.28" y="1009.54" width="6.9" height="1.2"/>
    <rect class="cls-17" x="1241.25" y="1005.59" width="6.9" height="1.2"/>
    <rect class="cls-17" x="1241.4" y="1001.64" width="6.9" height="1.2"/>
    <rect class="cls-17" x="1241.22" y="1021.4" width="6.9" height="1.2"/>
    <rect class="cls-17" x="1241.19" y="1041.15" width="6.9" height="1.2"/>
    <rect class="cls-17" x="1241.16" y="1037.2" width="6.9" height="1.2"/>
    <rect class="cls-17" x="1241.13" y="1033.25" width="6.9" height="1.2"/>
    <rect class="cls-17" x="1241.1" y="1029.3" width="6.9" height="1.2"/>
    <rect class="cls-17" x="1241.07" y="1025.35" width="6.9" height="1.2"/>
    <rect class="cls-17" x="1260.72" y="1002.22" width="4.98" height="1.2"/>
    <rect class="cls-17" x="1259.76" y="1022.84" width="6.9" height="1.2"/>
    <rect class="cls-17" x="1259.76" y="1018.71" width="6.9" height="1.2"/>
    <rect class="cls-17" x="1260.01" y="1014.59" width="6.4" height="1.2"/>
    <rect class="cls-17" x="1260.41" y="1010.47" width="5.6" height="1.2"/>
    <rect class="cls-17" x="1260.59" y="1006.34" width="5.24" height="1.2"/>
    <rect class="cls-17" x="1259.76" y="1026.96" width="6.9" height="1.2"/>
    <rect class="cls-17" x="1259.76" y="1047.58" width="6.9" height="1.2"/>
    <rect class="cls-17" x="1259.76" y="1043.46" width="6.9" height="1.2"/>
    <rect class="cls-17" x="1259.76" y="1039.33" width="6.9" height="1.2"/>
    <rect class="cls-17" x="1259.76" y="1035.21" width="6.9" height="1.2"/>
    <rect class="cls-17" x="1259.76" y="1031.09" width="6.9" height="1.2"/>
    <polygon class="cls-15" points="1467 1054.18 1218.92 1054.18 1218.92 1052.5 1329.59 1052.5 1329.59 1050.25 1217 1050.25 1217 1056.99 1467 1056.99 1467 1054.18"/>
    <image width="430" height="430" transform="translate(32 1008) scale(0.26)" xlink:href="../../Downloads/qrcode_for_gh_3f703cd81760_430.jpg"/>
    <text class="cls-18" transform="translate(776.83 90.74)">宁波轨道交通总规划</text>
    <text class="cls-19" transform="translate(37 1142)">Design: xank@qq.com      <tspan x="0" y="20">2018.05.30</tspan>
    </text>
  </g>
  <g id="图例">
    <rect class="cls-20" x="762.84" y="1109" width="42.08" height="16.77"/>
    <text class="cls-21" transform="translate(818.46 1121.3)">1号线</text>
    <rect class="cls-22" x="886.59" y="1109" width="42.08" height="16.77"/>
    <text class="cls-21" transform="translate(942.19 1121.3)">2号线</text>
    <rect class="cls-23" x="1010.33" y="1109" width="42.08" height="16.77"/>
    <text class="cls-21" transform="translate(1065.17 1121.3)">3号线</text>
    <rect class="cls-24" x="1134.08" y="1109" width="42.08" height="16.77"/>
    <text class="cls-21" transform="translate(1189.16 1121.3)">4号线</text>
    <rect class="cls-25" x="1257.82" y="1109" width="42.08" height="16.77"/>
    <text class="cls-21" transform="translate(1310.82 1121.3)">5号线</text>
    <rect class="cls-26" x="1381.57" y="1109" width="42.08" height="16.77"/>
    <text class="cls-21" transform="translate(1433.08 1121.3)">6号线</text>
    <rect class="cls-27" x="762.86" y="1142.03" width="42.08" height="16.77"/>
    <text class="cls-21" transform="translate(818.46 1154.32)">7号线</text>
    <rect class="cls-28" x="886.61" y="1142.03" width="42.08" height="16.77"/>
    <text class="cls-21" transform="translate(942.19 1154.32)">8号线</text>
    <rect class="cls-23" x="1257.87" y="1142.03" width="42.08" height="16.77"/>
    <text class="cls-21" transform="translate(1310.82 1154.32)">S3线</text>
    <rect class="cls-29" x="1010.36" y="1142.03" width="42.08" height="16.77"/>
    <text class="cls-21" transform="translate(1065.17 1154.32)">K1快线</text>
    <rect class="cls-30" x="1134.12" y="1142.03" width="42.08" height="16.77"/>
    <text class="cls-21" transform="translate(1189.16 1154.32)">K2快线</text>
  </g>
</svg>